{"asset":{"generator":"Khronos glTF Blender I/O v4.1.63","version":"2.0"},"extensionsUsed":["KHR_materials_specular","KHR_materials_ior"],"scene":0,"scenes":[{"name":"Scene","nodes":[25]}],"nodes":[{"name":"Bone.002","rotation":[0.6681274175643921,-2.8649110671687475e-14,-1.5929397534364398e-7,0.7440469264984131],"scale":[1,1,1.0000001192092896],"translation":[-1.4009966452200543e-14,1.4407756328582764,0]},{"name":"Bone.006","rotation":[0.9654138684272766,8.080894531303784e-7,0.0000027620567379926797,0.260722279548645],"scale":[1,1,0.9999998211860657],"translation":[2.4262924114282214e-8,-0.15869499742984772,0.10176616907119751]},{"name":"EYE.UP.L","rotation":[0.8841492533683777,6.636440161855717e-7,0.0000010564633612375474,0.4672044813632965],"scale":[1,1,1.0000001192092896],"translation":[0.4568193256855011,0.28896480798721313,0.8307747840881348]},{"name":"EYE.DOWN.L","rotation":[0.9953730702400208,1.2620891709502757e-7,0.0000013074251228317735,0.09608563035726547],"scale":[1,1,1.0000029802322388],"translation":[0.4568192958831787,0.069459930062294,0.5535119771957397]},{"name":"MOUTHCR.l","rotation":[0.9619386792182922,0.20603802800178528,-0.029537038877606392,0.17705920338630676],"scale":[0.9999997019767761,0.9999998807907104,0.9999997615814209],"translation":[0.45681920647621155,-0.32881757616996765,0.14376911520957947]},{"name":"EYE.UP.R","rotation":[0.8841492533683777,-5.61643275887036e-7,-0.0000012623006568901474,0.4672044813632965],"scale":[1,1,1.0000001192092896],"translation":[-0.45681890845298767,0.28896480798721313,0.8307750225067139]},{"name":"EYE.DOWN.R","rotation":[0.9953730702400208,-1.4869448250465211e-7,-0.000001540358312013268,0.09608563035726547],"scale":[1,1,1.0000028610229492],"translation":[-0.45681899785995483,0.069459930062294,0.5535121560096741]},{"name":"MOUTHCR.r","rotation":[0.9619386196136475,-0.20603808760643005,0.029536789283156395,0.17705917358398438],"scale":[0.9999996423721313,1,0.9999996423721313],"translation":[-0.456819087266922,-0.32881760597229004,0.1437695026397705]},{"children":[0,1,2,3,4,5,6,7],"name":"Bone.001","rotation":[-0.385725200176239,-1.099841071550145e-7,4.598201996941498e-8,0.9226137399673462],"scale":[1,0.9999999403953552,1],"translation":[2.481541837659083e-24,1.3669750690460205,1.1781230568885803e-7]},{"children":[8],"name":"Bone","rotation":[-0.01443559117615223,-2.933806808039391e-17,-2.933806808039391e-17,0.9998958110809326],"translation":[0,-1.0359304525309199e-7,-6.834378751818804e-8]},{"name":"Bone.005","rotation":[0.006685012020170689,-7.389739861696221e-13,2.3907587021199106e-8,0.999977707862854],"scale":[1,0.9999999403953552,0.9999999403953552],"translation":[-1.7564839556796774e-12,1.4510242938995361,1.7881393432617188e-7]},{"children":[10],"name":"Bone.004","rotation":[0.1679970771074295,-7.050921908557939e-7,7.209661134766066e-7,0.9857875108718872],"scale":[1,1,0.9999999403953552],"translation":[-1.1359273574930787e-13,0.24680647253990173,0]},{"children":[11],"name":"Bone.003","rotation":[0.8273781538009644,0.0000014060210560273845,0.0000020712564037239645,0.5616452693939209],"scale":[1,1.0000001192092896,1.0000008344650269],"translation":[9.410335535414794e-17,1.4238039255142212,-0.08335543423891068]},{"children":[9,12],"name":"Armature"},{"name":"d5420798caed453b8788eb9e2095e93d.fbx"},{"mesh":0,"name":"eye","rotation":[0.7071068286895752,0,0,0.7071068286895752],"scale":[25.181970596313477,25.181970596313477,25.181970596313477],"translation":[0.4084385931491852,1.9149062633514404,0.5458076000213623]},{"mesh":1,"name":"eye.001","rotation":[0.7071068286895752,0,0,0.7071068286895752],"scale":[30.017168045043945,30.017168045043945,30.017168045043945],"translation":[-0.4264526665210724,1.9000585079193115,0.4602956771850586]},{"name":"Low_Teeth25"},{"mesh":2,"name":"Low_Teeth25_Low_Teeth25_0","rotation":[0.1495346873998642,-0.00034095198498107493,-0.015535343438386917,0.9886344075202942],"scale":[1.3587007522583008,0.8671075105667114,0.8671075105667114],"translation":[-0.0030330545268952847,0.8214857578277588,0.42036673426628113]},{"name":"Low_Teeth27"},{"mesh":3,"name":"Plane","skin":0},{"name":"RootNode"},{"name":"Sketchfab_model","rotation":[-0.70710688829422,0,0,0.7071066498756409]},{"name":"Stylised Eye","scale":[25.181970596313477,25.181970596313477,25.181970596313477],"translation":[0.4084385931491852,1.9149062633514404,0.5458076000213623]},{"name":"Stylised Eye.001","scale":[30.017168045043945,30.017168045043945,30.017168045043945],"translation":[-0.4264526665210724,1.9000585079193115,0.4602956771850586]},{"children":[13,14,15,16,17,18,19,20,21,22,23,24],"name":"Empty","rotation":[-0.7071068286895752,0,0,0.7071068286895752],"scale":[0.6865504384040833,0.6865504384040833,0.6865504384040833],"translation":[0,1.6270780563354492,1.0734376907348633]}],"animations":[{"channels":[{"sampler":0,"target":{"node":9,"path":"translation"}},{"sampler":1,"target":{"node":9,"path":"rotation"}},{"sampler":2,"target":{"node":9,"path":"scale"}},{"sampler":3,"target":{"node":8,"path":"translation"}},{"sampler":4,"target":{"node":8,"path":"rotation"}},{"sampler":5,"target":{"node":8,"path":"scale"}},{"sampler":6,"target":{"node":0,"path":"translation"}},{"sampler":7,"target":{"node":0,"path":"rotation"}},{"sampler":8,"target":{"node":0,"path":"scale"}},{"sampler":9,"target":{"node":1,"path":"translation"}},{"sampler":10,"target":{"node":1,"path":"rotation"}},{"sampler":11,"target":{"node":1,"path":"scale"}},{"sampler":12,"target":{"node":2,"path":"translation"}},{"sampler":13,"target":{"node":2,"path":"rotation"}},{"sampler":14,"target":{"node":2,"path":"scale"}},{"sampler":15,"target":{"node":3,"path":"translation"}},{"sampler":16,"target":{"node":3,"path":"rotation"}},{"sampler":17,"target":{"node":3,"path":"scale"}},{"sampler":18,"target":{"node":4,"path":"translation"}},{"sampler":19,"target":{"node":4,"path":"rotation"}},{"sampler":20,"target":{"node":4,"path":"scale"}},{"sampler":21,"target":{"node":5,"path":"translation"}},{"sampler":22,"target":{"node":5,"path":"rotation"}},{"sampler":23,"target":{"node":5,"path":"scale"}},{"sampler":24,"target":{"node":6,"path":"translation"}},{"sampler":25,"target":{"node":6,"path":"rotation"}},{"sampler":26,"target":{"node":6,"path":"scale"}},{"sampler":27,"target":{"node":7,"path":"translation"}},{"sampler":28,"target":{"node":7,"path":"rotation"}},{"sampler":29,"target":{"node":7,"path":"scale"}},{"sampler":30,"target":{"node":12,"path":"translation"}},{"sampler":31,"target":{"node":12,"path":"rotation"}},{"sampler":32,"target":{"node":12,"path":"scale"}},{"sampler":33,"target":{"node":11,"path":"translation"}},{"sampler":34,"target":{"node":11,"path":"rotation"}},{"sampler":35,"target":{"node":11,"path":"scale"}},{"sampler":36,"target":{"node":10,"path":"translation"}},{"sampler":37,"target":{"node":10,"path":"rotation"}},{"sampler":38,"target":{"node":10,"path":"scale"}}],"name":"ArmatureAction","samplers":[{"input":32,"interpolation":"STEP","output":33},{"input":32,"interpolation":"STEP","output":34},{"input":32,"interpolation":"STEP","output":35},{"input":32,"interpolation":"STEP","output":36},{"input":32,"interpolation":"STEP","output":37},{"input":32,"interpolation":"STEP","output":38},{"input":32,"interpolation":"STEP","output":39},{"input":40,"interpolation":"LINEAR","output":41},{"input":32,"interpolation":"STEP","output":42},{"input":40,"interpolation":"LINEAR","output":43},{"input":32,"interpolation":"STEP","output":44},{"input":32,"interpolation":"STEP","output":45},{"input":40,"interpolation":"LINEAR","output":46},{"input":40,"interpolation":"LINEAR","output":47},{"input":32,"interpolation":"STEP","output":48},{"input":40,"interpolation":"LINEAR","output":49},{"input":40,"interpolation":"LINEAR","output":50},{"input":32,"interpolation":"STEP","output":51},{"input":40,"interpolation":"LINEAR","output":52},{"input":32,"interpolation":"STEP","output":53},{"input":32,"interpolation":"STEP","output":54},{"input":40,"interpolation":"LINEAR","output":55},{"input":40,"interpolation":"LINEAR","output":56},{"input":32,"interpolation":"STEP","output":57},{"input":40,"interpolation":"LINEAR","output":58},{"input":40,"interpolation":"LINEAR","output":59},{"input":32,"interpolation":"STEP","output":60},{"input":40,"interpolation":"LINEAR","output":61},{"input":32,"interpolation":"STEP","output":62},{"input":32,"interpolation":"STEP","output":63},{"input":40,"interpolation":"LINEAR","output":64},{"input":32,"interpolation":"STEP","output":65},{"input":32,"interpolation":"STEP","output":66},{"input":32,"interpolation":"STEP","output":67},{"input":40,"interpolation":"LINEAR","output":68},{"input":32,"interpolation":"STEP","output":69},{"input":32,"interpolation":"STEP","output":70},{"input":32,"interpolation":"STEP","output":71},{"input":32,"interpolation":"STEP","output":72}]}],"materials":[{"alphaMode":"BLEND","doubleSided":true,"name":"eye","pbrMetallicRoughness":{"baseColorFactor":[0.800000011920929,0.800000011920929,0.800000011920929,1],"metallicFactor":0,"roughnessFactor":0}},{"doubleSided":true,"extensions":{"KHR_materials_specular":{"specularFactor":0},"KHR_materials_ior":{"ior":1.4500000476837158}},"name":"iris","pbrMetallicRoughness":{"metallicFactor":0}},{"doubleSided":true,"name":"Low_Teeth25","pbrMetallicRoughness":{"baseColorFactor":[0.800000011920929,0.800000011920929,0.800000011920929,1],"metallicFactor":0}},{"doubleSided":true,"name":"Low_Teeth27","pbrMetallicRoughness":{"baseColorFactor":[0.5209857821464539,0,0.6038314700126648,1],"metallicFactor":0}},{"doubleSided":true,"name":"Material.001","normalTexture":{"index":0,"scale":2.1399998664855957},"pbrMetallicRoughness":{"metallicFactor":0,"roughnessFactor":0.5}}],"meshes":[{"name":"Sphere.001","primitives":[{"attributes":{"POSITION":0,"NORMAL":1,"TEXCOORD_0":2},"indices":3,"material":0},{"attributes":{"POSITION":4,"NORMAL":5,"TEXCOORD_0":6},"indices":7,"material":1}]},{"name":"Sphere.002","primitives":[{"attributes":{"POSITION":8,"NORMAL":9,"TEXCOORD_0":10},"indices":3,"material":0},{"attributes":{"POSITION":11,"NORMAL":12,"TEXCOORD_0":13},"indices":7,"material":1}]},{"name":"Low_Teeth25_Low_Teeth25_0","primitives":[{"attributes":{"POSITION":14,"NORMAL":15,"TEXCOORD_0":16,"TEXCOORD_1":17},"indices":18,"material":2},{"attributes":{"POSITION":19,"NORMAL":20,"TEXCOORD_0":21,"TEXCOORD_1":22},"indices":23,"material":3}]},{"name":"Plane.001","primitives":[{"attributes":{"POSITION":24,"NORMAL":25,"TEXCOORD_0":26,"COLOR_0":27,"JOINTS_0":28,"WEIGHTS_0":29},"indices":30,"material":4}]}],"textures":[{"sampler":0,"source":0}],"images":[{"mimeType":"image/png","name":"normal","uri":"data:application/octet-stream;base64,"}],"skins":[{"inverseBindMatrices":31,"joints":[9,8,0,1,2,3,4,5,6,7,12,11,10],"name":"Armature"}],"accessors":[{"bufferView":0,"componentType":5126,"count":517,"max":[0.011324693448841572,0.012655006721615791,0.011324694380164146],"min":[-0.011324690654873848,-0.012580550275743008,-0.011324693448841572],"type":"VEC3"},{"bufferView":1,"componentType":5126,"count":517,"type":"VEC3"},{"bufferView":2,"componentType":5126,"count":517,"type":"VEC2"},{"bufferView":3,"componentType":5123,"count":2784,"type":"SCALAR"},{"bufferView":4,"componentType":5126,"count":89,"max":[0.004630484152585268,0.0103153670206666,0.004630485083907843],"min":[-0.004630476236343384,0.00800827145576477,-0.004630477633327246],"type":"VEC3"},{"bufferView":5,"componentType":5126,"count":89,"type":"VEC3"},{"bufferView":6,"componentType":5126,"count":89,"type":"VEC2"},{"bufferView":7,"componentType":5123,"count":384,"type":"SCALAR"},{"bufferView":8,"componentType":5126,"count":517,"max":[0.01210684422403574,0.01229231059551239,0.012106843292713165],"min":[-0.012106841430068016,-0.012580550275743008,-0.012106846086680889],"type":"VEC3"},{"bufferView":9,"componentType":5126,"count":517,"type":"VEC3"},{"bufferView":10,"componentType":5126,"count":517,"type":"VEC2"},{"bufferView":11,"componentType":5126,"count":89,"max":[0.002838718704879284,0.010332158766686916,0.002838712651282549],"min":[-0.002838714513927698,0.008376005105674267,-0.0028387224301695824],"type":"VEC3"},{"bufferView":12,"componentType":5126,"count":89,"type":"VEC3"},{"bufferView":13,"componentType":5126,"count":89,"type":"VEC2"},{"bufferView":14,"componentType":5126,"count":14360,"max":[0.45770537853240967,0.41108447313308716,0.47026121616363525],"min":[-0.4487575590610504,-0.38862180709838867,-0.3922039270401001],"type":"VEC3"},{"bufferView":15,"componentType":5126,"count":14360,"type":"VEC3"},{"bufferView":16,"componentType":5126,"count":14360,"type":"VEC2"},{"bufferView":17,"componentType":5126,"count":14360,"type":"VEC2"},{"bufferView":18,"componentType":5123,"count":80802,"type":"SCALAR"},{"bufferView":19,"componentType":5126,"count":5255,"max":[0.5061286687850952,0.4046573042869568,0.45156431198120117],"min":[-0.48794904351234436,-0.39848625659942627,-0.5160747766494751],"type":"VEC3"},{"bufferView":20,"componentType":5126,"count":5255,"type":"VEC3"},{"bufferView":21,"componentType":5126,"count":5255,"type":"VEC2"},{"bufferView":22,"componentType":5126,"count":5255,"type":"VEC2"},{"bufferView":23,"componentType":5123,"count":30426,"type":"SCALAR"},{"bufferView":24,"componentType":5126,"count":2053,"max":[0.7357019186019897,2.325300931930542,1.07433021068573],"min":[-0.7262626886367798,0.6685464382171631,-1.1419665813446045],"type":"VEC3"},{"bufferView":25,"componentType":5126,"count":2053,"type":"VEC3"},{"bufferView":26,"componentType":5126,"count":2053,"type":"VEC2"},{"bufferView":27,"componentType":5126,"count":2053,"type":"VEC3"},{"bufferView":28,"componentType":5121,"count":2053,"type":"VEC4"},{"bufferView":29,"componentType":5126,"count":2053,"type":"VEC4"},{"bufferView":30,"componentType":5123,"count":10956,"type":"SCALAR"},{"bufferView":31,"componentType":5126,"count":13,"type":"MAT4"},{"bufferView":32,"componentType":5126,"count":2,"max":[3.9166666666666665],"min":[0.041666666666666664],"type":"SCALAR"},{"bufferView":33,"componentType":5126,"count":2,"type":"VEC3"},{"bufferView":34,"componentType":5126,"count":2,"type":"VEC4"},{"bufferView":35,"componentType":5126,"count":2,"type":"VEC3"},{"bufferView":36,"componentType":5126,"count":2,"type":"VEC3"},{"bufferView":37,"componentType":5126,"count":2,"type":"VEC4"},{"bufferView":38,"componentType":5126,"count":2,"type":"VEC3"},{"bufferView":39,"componentType":5126,"count":2,"type":"VEC3"},{"bufferView":40,"componentType":5126,"count":94,"max":[3.9166666666666665],"min":[0.041666666666666664],"type":"SCALAR"},{"bufferView":41,"componentType":5126,"count":94,"type":"VEC4"},{"bufferView":42,"componentType":5126,"count":2,"type":"VEC3"},{"bufferView":43,"componentType":5126,"count":94,"type":"VEC3"},{"bufferView":44,"componentType":5126,"count":2,"type":"VEC4"},{"bufferView":45,"componentType":5126,"count":2,"type":"VEC3"},{"bufferView":46,"componentType":5126,"count":94,"type":"VEC3"},{"bufferView":47,"componentType":5126,"count":94,"type":"VEC4"},{"bufferView":48,"componentType":5126,"count":2,"type":"VEC3"},{"bufferView":49,"componentType":5126,"count":94,"type":"VEC3"},{"bufferView":50,"componentType":5126,"count":94,"type":"VEC4"},{"bufferView":51,"componentType":5126,"count":2,"type":"VEC3"},{"bufferView":52,"componentType":5126,"count":94,"type":"VEC3"},{"bufferView":53,"componentType":5126,"count":2,"type":"VEC4"},{"bufferView":54,"componentType":5126,"count":2,"type":"VEC3"},{"bufferView":55,"componentType":5126,"count":94,"type":"VEC3"},{"bufferView":56,"componentType":5126,"count":94,"type":"VEC4"},{"bufferView":57,"componentType":5126,"count":2,"type":"VEC3"},{"bufferView":58,"componentType":5126,"count":94,"type":"VEC3"},{"bufferView":59,"componentType":5126,"count":94,"type":"VEC4"},{"bufferView":60,"componentType":5126,"count":2,"type":"VEC3"},{"bufferView":61,"componentType":5126,"count":94,"type":"VEC3"},{"bufferView":62,"componentType":5126,"count":2,"type":"VEC4"},{"bufferView":63,"componentType":5126,"count":2,"type":"VEC3"},{"bufferView":64,"componentType":5126,"count":94,"type":"VEC3"},{"bufferView":65,"componentType":5126,"count":2,"type":"VEC4"},{"bufferView":66,"componentType":5126,"count":2,"type":"VEC3"},{"bufferView":67,"componentType":5126,"count":2,"type":"VEC3"},{"bufferView":68,"componentType":5126,"count":94,"type":"VEC4"},{"bufferView":69,"componentType":5126,"count":2,"type":"VEC3"},{"bufferView":70,"componentType":5126,"count":2,"type":"VEC3"},{"bufferView":71,"componentType":5126,"count":2,"type":"VEC4"},{"bufferView":72,"componentType":5126,"count":2,"type":"VEC3"}],"bufferViews":[{"buffer":0,"byteLength":6204,"byteOffset":0,"target":34962},{"buffer":0,"byteLength":6204,"byteOffset":6204,"target":34962},{"buffer":0,"byteLength":4136,"byteOffset":12408,"target":34962},{"buffer":0,"byteLength":5568,"byteOffset":16544,"target":34963},{"buffer":0,"byteLength":1068,"byteOffset":22112,"target":34962},{"buffer":0,"byteLength":1068,"byteOffset":23180,"target":34962},{"buffer":0,"byteLength":712,"byteOffset":24248,"target":34962},{"buffer":0,"byteLength":768,"byteOffset":24960,"target":34963},{"buffer":0,"byteLength":6204,"byteOffset":25728,"target":34962},{"buffer":0,"byteLength":6204,"byteOffset":31932,"target":34962},{"buffer":0,"byteLength":4136,"byteOffset":38136,"target":34962},{"buffer":0,"byteLength":1068,"byteOffset":42272,"target":34962},{"buffer":0,"byteLength":1068,"byteOffset":43340,"target":34962},{"buffer":0,"byteLength":712,"byteOffset":44408,"target":34962},{"buffer":0,"byteLength":172320,"byteOffset":45120,"target":34962},{"buffer":0,"byteLength":172320,"byteOffset":217440,"target":34962},{"buffer":0,"byteLength":114880,"byteOffset":389760,"target":34962},{"buffer":0,"byteLength":114880,"byteOffset":504640,"target":34962},{"buffer":0,"byteLength":161604,"byteOffset":619520,"target":34963},{"buffer":0,"byteLength":63060,"byteOffset":781124,"target":34962},{"buffer":0,"byteLength":63060,"byteOffset":844184,"target":34962},{"buffer":0,"byteLength":42040,"byteOffset":907244,"target":34962},{"buffer":0,"byteLength":42040,"byteOffset":949284,"target":34962},{"buffer":0,"byteLength":60852,"byteOffset":991324,"target":34963},{"buffer":0,"byteLength":24636,"byteOffset":1052176,"target":34962},{"buffer":0,"byteLength":24636,"byteOffset":1076812,"target":34962},{"buffer":0,"byteLength":16424,"byteOffset":1101448,"target":34962},{"buffer":0,"byteLength":24636,"byteOffset":1117872,"target":34962},{"buffer":0,"byteLength":8212,"byteOffset":1142508,"target":34962},{"buffer":0,"byteLength":32848,"byteOffset":1150720,"target":34962},{"buffer":0,"byteLength":21912,"byteOffset":1183568,"target":34963},{"buffer":0,"byteLength":832,"byteOffset":1205480},{"buffer":0,"byteLength":8,"byteOffset":1206312},{"buffer":0,"byteLength":24,"byteOffset":1206320},{"buffer":0,"byteLength":32,"byteOffset":1206344},{"buffer":0,"byteLength":24,"byteOffset":1206376},{"buffer":0,"byteLength":24,"byteOffset":1206400},{"buffer":0,"byteLength":32,"byteOffset":1206424},{"buffer":0,"byteLength":24,"byteOffset":1206456},{"buffer":0,"byteLength":24,"byteOffset":1206480},{"buffer":0,"byteLength":376,"byteOffset":1206504},{"buffer":0,"byteLength":1504,"byteOffset":1206880},{"buffer":0,"byteLength":24,"byteOffset":1208384},{"buffer":0,"byteLength":1128,"byteOffset":1208408},{"buffer":0,"byteLength":32,"byteOffset":1209536},{"buffer":0,"byteLength":24,"byteOffset":1209568},{"buffer":0,"byteLength":1128,"byteOffset":1209592},{"buffer":0,"byteLength":1504,"byteOffset":1210720},{"buffer":0,"byteLength":24,"byteOffset":1212224},{"buffer":0,"byteLength":1128,"byteOffset":1212248},{"buffer":0,"byteLength":1504,"byteOffset":1213376},{"buffer":0,"byteLength":24,"byteOffset":1214880},{"buffer":0,"byteLength":1128,"byteOffset":1214904},{"buffer":0,"byteLength":32,"byteOffset":1216032},{"buffer":0,"byteLength":24,"byteOffset":1216064},{"buffer":0,"byteLength":1128,"byteOffset":1216088},{"buffer":0,"byteLength":1504,"byteOffset":1217216},{"buffer":0,"byteLength":24,"byteOffset":1218720},{"buffer":0,"byteLength":1128,"byteOffset":1218744},{"buffer":0,"byteLength":1504,"byteOffset":1219872},{"buffer":0,"byteLength":24,"byteOffset":1221376},{"buffer":0,"byteLength":1128,"byteOffset":1221400},{"buffer":0,"byteLength":32,"byteOffset":1222528},{"buffer":0,"byteLength":24,"byteOffset":1222560},{"buffer":0,"byteLength":1128,"byteOffset":1222584},{"buffer":0,"byteLength":32,"byteOffset":1223712},{"buffer":0,"byteLength":24,"byteOffset":1223744},{"buffer":0,"byteLength":24,"byteOffset":1223768},{"buffer":0,"byteLength":1504,"byteOffset":1223792},{"buffer":0,"byteLength":24,"byteOffset":1225296},{"buffer":0,"byteLength":24,"byteOffset":1225320},{"buffer":0,"byteLength":32,"byteOffset":1225344},{"buffer":0,"byteLength":24,"byteOffset":1225376}],"samplers":[{"magFilter":9729,"minFilter":9987}],"buffers":[{"byteLength":1225400,"uri":"data:application/octet-stream;base64,"}]}